<svg id="Component_31_1" data-name="Component 31 – 1" xmlns="http://www.w3.org/2000/svg" width="245" height="447" viewBox="0 0 245 447">
  <g id="Rectangle_9" data-name="Rectangle 9" fill="#0078f3" stroke="#707070" stroke-width="1">
    <rect width="200" height="447" stroke="none"/>
    <rect x="0.5" y="0.5" width="199" height="446" fill="none"/>
  </g>
  <g id="Component_13_1" data-name="Component 13 – 1" transform="translate(127 123)">
    <g id="Component_30_1" data-name="Component 30 – 1">
      <rect id="Rectangle_11" data-name="Rectangle 11" width="11" height="11" rx="5.5" transform="translate(54)" fill="#fff"/>
      <rect id="Rectangle_11-2" data-name="Rectangle 11" width="11" height="11" rx="5.5" transform="translate(80)" fill="#fff"/>
      <rect id="Rectangle_11-3" data-name="Rectangle 11" width="11" height="11" rx="5.5" transform="translate(107)" fill="#fff"/>
      <rect id="Rectangle_11-4" data-name="Rectangle 11" width="11" height="11" rx="5.5" fill="#fff"/>
      <rect id="Rectangle_11-5" data-name="Rectangle 11" width="11" height="11" rx="5.5" transform="translate(27)" fill="#fff"/>
    </g>
    <g id="Component_30_1-2" data-name="Component 30 – 1" transform="translate(0 31)">
      <rect id="Rectangle_11-6" data-name="Rectangle 11" width="11" height="11" rx="5.5" transform="translate(54)" fill="#fff"/>
      <rect id="Rectangle_11-7" data-name="Rectangle 11" width="11" height="11" rx="5.5" transform="translate(80)" fill="#fff"/>
      <rect id="Rectangle_11-8" data-name="Rectangle 11" width="11" height="11" rx="5.5" transform="translate(107)" fill="#fff"/>
      <rect id="Rectangle_11-9" data-name="Rectangle 11" width="11" height="11" rx="5.5" fill="#fff"/>
      <rect id="Rectangle_11-10" data-name="Rectangle 11" width="11" height="11" rx="5.5" transform="translate(27)" fill="#fff"/>
    </g>
    <g id="Component_30_1-3" data-name="Component 30 – 1" transform="translate(0 62)">
      <rect id="Rectangle_11-11" data-name="Rectangle 11" width="11" height="11" rx="5.5" transform="translate(54)" fill="#fff"/>
      <rect id="Rectangle_11-12" data-name="Rectangle 11" width="11" height="11" rx="5.5" transform="translate(80)" fill="#fff"/>
      <rect id="Rectangle_11-13" data-name="Rectangle 11" width="11" height="11" rx="5.5" transform="translate(107)" fill="#fff"/>
      <rect id="Rectangle_11-14" data-name="Rectangle 11" width="11" height="11" rx="5.5" fill="#fff"/>
      <rect id="Rectangle_11-15" data-name="Rectangle 11" width="11" height="11" rx="5.5" transform="translate(27)" fill="#fff"/>
    </g>
    <g id="Component_30_1-4" data-name="Component 30 – 1" transform="translate(0 93)">
      <rect id="Rectangle_11-16" data-name="Rectangle 11" width="11" height="11" rx="5.5" transform="translate(54)" fill="#fff"/>
      <rect id="Rectangle_11-17" data-name="Rectangle 11" width="11" height="11" rx="5.5" transform="translate(80)" fill="#fff"/>
      <rect id="Rectangle_11-18" data-name="Rectangle 11" width="11" height="11" rx="5.5" transform="translate(107)" fill="#fff"/>
      <rect id="Rectangle_11-19" data-name="Rectangle 11" width="11" height="11" rx="5.5" fill="#fff"/>
      <rect id="Rectangle_11-20" data-name="Rectangle 11" width="11" height="11" rx="5.5" transform="translate(27)" fill="#fff"/>
    </g>
  </g>
</svg>
